<svg width="30" height="20" viewBox="0 0 30 20" fill="none" xmlns="http://www.w3.org/2000/svg">
<path fill-rule="evenodd" clip-rule="evenodd" d="M8.48979 0.643373C7.25821 1.77417 0.565983 8.09412 0.565983 11.8919C0.565983 16.0649 4.12066 19.4594 8.48979 19.4594C12.8589 19.4594 16.4136 16.0649 16.4136 11.8919C16.4136 8.09412 9.72138 1.77417 8.48979 0.643373ZM8.4898 20C3.80852 20 0 16.3627 0 11.8919C0 7.49602 7.95834 0.373646 8.29708 0.072567C8.40575 -0.024189 8.57385 -0.024189 8.68252 0.072567C9.02126 0.373646 16.9796 7.49602 16.9796 11.8919C16.9796 16.3627 13.1711 20 8.4898 20ZM14.7156 20C14.455 20 14.1904 19.9884 13.9298 19.9657C13.7741 19.9519 13.6595 19.8205 13.6739 19.6719C13.6881 19.5233 13.8251 19.4138 13.9816 19.4273C14.2249 19.4487 14.472 19.4595 14.7156 19.4595C19.0848 19.4595 22.6394 16.0646 22.6394 11.892C22.6394 8.09388 15.9464 1.77339 14.7154 0.6434C14.3882 0.942857 13.6748 1.60853 12.8111 2.48933C12.7038 2.59798 12.5247 2.60366 12.4109 2.50176C12.2969 2.39987 12.2909 2.22879 12.3979 2.11987C13.5829 0.911565 14.4903 0.101726 14.5221 0.0733059L14.5229 0.072594C14.6316 -0.024162 14.7997 -0.024162 14.9084 0.072594C15.2471 0.373673 23.2054 7.49605 23.2054 11.892C23.2054 16.3627 19.3969 20 14.7156 20ZM20.4386 19.9657C20.6992 19.9884 20.9638 20 21.2245 20C25.9058 20 29.7143 16.3627 29.7143 11.892C29.7143 7.49605 21.7559 0.373673 21.4172 0.072594C21.3085 -0.024162 21.1404 -0.024162 21.0318 0.072594L21.031 0.0733191C20.9988 0.101976 20.0916 0.911752 18.9068 2.11987C18.7998 2.22879 18.8057 2.39987 18.9198 2.50176C19.0338 2.60366 19.2124 2.59798 19.3199 2.48933C20.1836 1.60853 20.8971 0.942857 21.2242 0.6434C22.4552 1.77339 29.1483 8.09388 29.1483 11.892C29.1483 16.0646 25.5936 19.4595 21.2245 19.4595C20.9808 19.4595 20.7338 19.4487 20.4904 19.4273C20.3331 19.4138 20.1969 19.5233 20.1828 19.6719C20.1684 19.8205 20.283 19.9519 20.4386 19.9657Z" fill="#6E6E6E"/>
</svg>
