<svg width="23" height="23" viewBox="0 0 23 23" fill="none" xmlns="http://www.w3.org/2000/svg">
<path fill-rule="evenodd" clip-rule="evenodd" d="M19.1425 16.9722L18.5938 16.5883C19.5992 15.1082 20.1305 13.3713 20.1305 11.5665C20.1305 6.68071 16.2135 2.70577 11.3985 2.70577C9.77551 2.70577 8.19151 3.16069 6.81784 4.0215L6.46751 3.44583C7.94651 2.5194 9.65184 2.0293 11.3985 2.0293C16.5808 2.0293 20.7972 6.30764 20.7972 11.5665C20.7972 13.5093 20.2252 15.3788 19.1425 16.9722ZM11.3985 21.1032C6.21621 21.1032 1.99988 16.8252 1.99988 11.5663C1.99988 9.6793 2.54221 7.85452 3.56821 6.28984L4.12321 6.66461C3.17021 8.11767 2.66654 9.8129 2.66654 11.5663C2.66654 16.4521 6.58388 20.4267 11.3985 20.4267C13.2222 20.4267 14.9685 19.8626 16.4499 18.7947L16.8359 19.3464C15.2415 20.4957 13.3612 21.1032 11.3985 21.1032ZM19.9319 20.7035C19.9969 20.7695 20.0822 20.8026 20.1676 20.8026C20.2529 20.8026 20.3382 20.7695 20.4032 20.7035C20.5336 20.5713 20.5336 20.3575 20.4032 20.2252L2.86525 2.42933C2.73491 2.29708 2.52391 2.29708 2.39391 2.42933C2.26358 2.56124 2.26358 2.77534 2.39391 2.90759L19.9319 20.7035Z" fill="#6E6E6E"/>
</svg>
