<svg width="22" height="23" viewBox="0 0 22 23" fill="none" xmlns="http://www.w3.org/2000/svg">
<path fill-rule="evenodd" clip-rule="evenodd" d="M8.98926 0.628571C4.37932 0.628571 0.628631 4.37926 0.628631 8.98951V9.86983C0.628631 13.2757 2.67934 16.3143 5.853 17.611C5.97117 17.6591 6.04849 17.7744 6.04849 17.902V20.0228C6.04849 20.9361 6.79146 21.6794 7.70509 21.6794H8.37618V19.538C8.37618 19.3642 8.51698 19.2238 8.69046 19.2238C8.86395 19.2238 9.00475 19.3642 9.00475 19.538V21.6794H12.3178V19.538C12.3178 19.3642 12.4586 19.2238 12.6321 19.2238C12.8056 19.2238 12.9464 19.3642 12.9464 19.538V21.6794H14.1102C15.0235 21.6794 15.7668 20.9361 15.7668 20.0228V17.902C15.7668 17.7744 15.8441 17.6591 15.9623 17.611C19.136 16.3143 21.1867 13.2757 21.1867 9.86983V8.98951C21.1867 4.37926 17.436 0.628571 12.8261 0.628571H8.98926ZM12.6419 22.308H14.1103C15.3703 22.308 16.3955 21.2831 16.3955 20.0228V18.1104C19.6951 16.6735 21.8153 13.4618 21.8153 9.86983V8.98951C21.8153 4.0326 17.7827 0 12.8261 0H8.98932C4.03272 0 0.00012207 4.0326 0.00012207 8.98951V9.86983C0.00012207 13.4618 2.12029 16.6735 5.41998 18.1104V20.0228C5.41998 21.2831 6.44486 22.308 7.70515 22.308H8.68064L8.69046 22.3082L8.70029 22.308H12.6222L12.6321 22.3082L12.6419 22.308ZM6.71959 9.49733C5.53442 9.49733 4.57019 10.4616 4.57019 11.6467C4.57019 12.8316 5.53442 13.7961 6.71959 13.7961C7.90476 13.7961 8.86867 12.8316 8.86867 11.6467C8.86867 10.4616 7.90476 9.49733 6.71959 9.49733ZM6.71959 14.4247C5.18776 14.4247 3.94162 13.1786 3.94162 11.6467C3.94162 10.1149 5.18776 8.86876 6.71959 8.86876C8.25142 8.86876 9.49725 10.1149 9.49725 11.6467C9.49725 13.1786 8.25142 14.4247 6.71959 14.4247ZM12.9463 11.6467C12.9463 10.4616 13.9105 9.49733 15.0957 9.49733C16.2809 9.49733 17.2448 10.4616 17.2448 11.6467C17.2448 12.8316 16.2809 13.7961 15.0957 13.7961C13.9105 13.7961 12.9463 12.8316 12.9463 11.6467ZM12.3177 11.6467C12.3177 13.1786 13.5639 14.4247 15.0957 14.4247C16.6275 14.4247 17.8734 13.1786 17.8734 11.6467C17.8734 10.1149 16.6275 8.86876 15.0957 8.86876C13.5639 8.86876 12.3177 10.1149 12.3177 11.6467Z" fill="#6E6E6E"/>
</svg>
